<svg width="48" height="48" viewBox="0 0 48 48" fill="none" xmlns="http://www.w3.org/2000/svg"> <circle cx="24" cy="24" r="23" stroke="white" stroke-width="2"/> <path d="M27.7176 12.0293L20.7463 13.6176C20.2304 13.7351 19.8774 14.3585 20.0404 14.8618C20.2156 15.403 20.7302 15.6945 21.2838 15.569L25.2834 14.6581C19.1109 20.79 19.8034 30.3036 25.4208 35.7082C25.802 36.0752 26.4756 36.1171 26.8501 35.7082C27.2138 35.3114 27.2569 34.6691 26.8501 34.2764C21.6718 29.2929 21.6193 21.1408 26.7127 16.071C26.6103 17.2544 26.5092 18.4379 26.4069 19.6214C26.3853 19.867 26.5348 20.1692 26.7032 20.3366C27.269 20.9033 28.34 20.6361 28.4275 19.6214C28.6175 17.4164 28.8074 15.21 28.9973 13.005C29.0418 12.4841 28.476 11.8566 27.7189 12.0293H27.7176ZM25.5824 17.3421C25.6094 17.3017 25.639 17.2558 25.6727 17.2247C25.6808 17.2166 25.5999 17.3192 25.5824 17.3421Z" fill="white"/> </svg>